<svg width="144" height="110" viewBox="0 0 144 110" fill="none" xmlns="http://www.w3.org/2000/svg">
<g clip-path="url(#clip0)">
<path d="M0 83.2187C0 82.9505 0.1307 82.8203 0.39012 82.8203H8.88564C9.14506 82.8203 9.27576 82.9505 9.27576 83.2187V85.4967C9.27576 85.755 9.14506 85.8852 8.88564 85.8852H3.44771V88.6246H7.43407C7.69349 88.6246 7.82419 88.7548 7.82419 89.023V91.1787C7.82419 91.4371 7.69349 91.5672 7.43407 91.5672H3.44771V95.63C3.44771 95.8884 3.31701 96.0186 3.05759 96.0186H0.39012C0.1307 96.0186 0 95.8884 0 95.63V83.2187Z" fill="white"/>
<path d="M12.7233 83.2187C12.8263 82.9505 13.0026 82.8203 13.2719 82.8203H15.4562C15.7156 82.8203 15.8938 82.9505 15.9948 83.2187L20.8644 95.6321C20.8921 95.7149 20.9099 95.7701 20.9099 95.8174C20.9099 95.9555 20.8069 96.0206 20.6129 96.0206H17.9573C17.688 96.0206 17.5117 95.8904 17.4266 95.6321L16.8047 93.8925H11.9352L11.3312 95.6321C11.248 95.8904 11.0718 96.0206 10.7925 96.0206H8.13298C7.93693 96.0206 7.83594 95.9555 7.83594 95.8174C7.83594 95.7721 7.85376 95.7149 7.88148 95.6321L12.7233 83.2187ZM15.7829 91.0328L14.3432 86.9975L12.9392 91.0328H15.7829Z" fill="white"/>
<path d="M25.2074 95.6321C25.2074 95.8904 25.0589 96.0206 24.7698 96.0206H22.2785C22.0191 96.0206 21.8884 95.8904 21.8884 95.6321V83.2187C21.8884 82.9958 22.027 82.8203 22.2785 82.8203H25.1698C25.4213 82.8203 25.6352 82.9505 25.8015 83.2187L30.2711 90.4194V83.2187C30.2711 82.9958 30.4097 82.8203 30.6711 82.8203H33.1524C33.3485 82.8203 33.5901 82.9958 33.5901 83.2187V95.6321C33.5901 95.8904 33.4415 96.0206 33.1524 96.0206H30.5404C30.2711 96.0206 30.0572 95.8904 29.8988 95.6321L25.2054 87.9403V95.6321H25.2074Z" fill="white"/>
<path d="M44.0083 92.1431C44.1113 92.1431 44.2044 92.1983 44.2677 92.3009L45.7272 94.4388C45.8104 94.5414 45.848 94.6242 45.848 94.6972C45.848 94.7997 45.7648 94.9003 45.6064 95.0127C44.4539 95.8174 43.1706 96.2158 41.7686 96.2158C40.5329 96.2158 39.3902 95.9101 38.3387 95.2987C37.2871 94.6873 36.4515 93.855 35.8395 92.8097C35.2256 91.7644 34.9187 90.6245 34.9187 89.3938C34.9187 88.1631 35.2256 87.0251 35.8395 85.9877C36.4534 84.9503 37.2891 84.1279 38.3387 83.5264C39.3883 82.9248 40.5329 82.6191 41.7686 82.6191C43.2835 82.6191 44.5945 83.1102 45.644 83.8597C45.7549 83.9425 45.8104 84.0451 45.8104 84.1654C45.8104 84.2305 45.7926 84.2857 45.7648 84.331L44.2123 86.5439C44.1469 86.6267 44.0638 86.6741 43.9608 86.6741C43.8578 86.6741 43.7647 86.6366 43.6637 86.5538C43.0696 86.0824 42.5112 85.8872 41.7686 85.8872C39.8358 85.8595 38.2931 87.4709 38.3209 89.3958C38.2832 91.3305 39.8457 92.9774 41.7686 92.9419C42.3904 92.9419 43.0142 92.7289 43.636 92.3029C43.7865 92.1983 43.9073 92.1431 44.0083 92.1431Z" fill="white"/>
<path d="M46.1748 83.2187C46.1372 83.1438 46.1194 83.0807 46.1194 83.0333C46.1194 82.8953 46.2402 82.8203 46.4263 82.8203H49.4839C49.7354 82.8203 49.8642 82.9308 50.0147 83.2187L52.1158 87.6701L54.1971 83.2187C54.3456 82.9327 54.4763 82.8203 54.7278 82.8203H57.823C58.0092 82.8203 58.13 82.8953 58.13 83.0333C58.13 83.0787 58.1121 83.1438 58.0745 83.2187L53.8366 90.6245V95.6321C53.8366 95.8904 53.706 96.0206 53.4465 96.0206H50.7751C50.5157 96.0206 50.385 95.8904 50.385 95.6321V90.6423L46.1748 83.2187Z" fill="white"/>
<path d="M64.0947 83.2187C64.0947 82.9505 64.2254 82.8203 64.4848 82.8203H72.9804C73.2398 82.8203 73.3705 82.9505 73.3705 83.2187V85.4967C73.3705 85.755 73.2398 85.8852 72.9804 85.8852H67.5424V88.6246H71.5288C71.7882 88.6246 71.9189 88.7548 71.9189 89.023V91.1787C71.9189 91.4371 71.7882 91.5672 71.5288 91.5672H67.5424V95.63C67.5424 95.8884 67.4117 96.0186 67.1523 96.0186H64.4848C64.2254 96.0186 64.0947 95.8884 64.0947 95.63V83.2187Z" fill="white"/>
<path d="M76.82 83.2187C76.923 82.9505 77.0992 82.8203 77.3686 82.8203H79.5528C79.8123 82.8203 79.9905 82.9505 80.0915 83.2187L84.9611 95.6321C84.9888 95.7149 85.0066 95.7701 85.0066 95.8174C85.0066 95.9555 84.9036 96.0206 84.7096 96.0206H82.052C81.7827 96.0206 81.6064 95.8904 81.5213 95.6321L80.8994 93.8925H76.0299L75.4259 95.6321C75.3427 95.8904 75.1665 96.0206 74.8872 96.0206H72.2297C72.0336 96.0206 71.9326 95.9555 71.9326 95.8174C71.9326 95.7721 71.9504 95.7149 71.9782 95.6321L76.82 83.2187ZM79.8776 91.0328L78.4379 86.9975L77.0339 91.0328H79.8776Z" fill="white"/>
<path d="M93.5041 92.1431C93.6071 92.1431 93.7002 92.1983 93.7636 92.3009L95.223 94.4388C95.3062 94.5414 95.3438 94.6242 95.3438 94.6972C95.3438 94.7997 95.2607 94.9003 95.1022 95.0127C93.9497 95.8174 92.6665 96.2158 91.2644 96.2158C90.0287 96.2158 88.8861 95.9101 87.8345 95.2987C86.785 94.6873 85.9473 93.855 85.3354 92.8097C84.7215 91.7644 84.4146 90.6245 84.4146 89.3938C84.4146 88.1631 84.7215 87.0251 85.3354 85.9877C85.9493 84.9503 86.785 84.1279 87.8345 83.5264C88.8841 82.9248 90.0287 82.6191 91.2644 82.6191C92.7793 82.6191 94.0903 83.1102 95.1399 83.8597C95.2508 83.9425 95.3062 84.0451 95.3062 84.1654C95.3062 84.2305 95.2884 84.2857 95.2587 84.331L93.7061 86.5439C93.6408 86.6267 93.5576 86.6741 93.4546 86.6741C93.3517 86.6741 93.2586 86.6366 93.1576 86.5538C92.5635 86.0824 92.0051 85.8872 91.2624 85.8872C89.3297 85.8595 87.787 87.4709 87.8147 89.3958C87.7771 91.3305 89.3396 92.9774 91.2624 92.9419C91.8843 92.9419 92.508 92.7289 93.1299 92.3029C93.2804 92.1983 93.4012 92.1431 93.5041 92.1431Z" fill="white"/>
<path d="M96.0686 83.2187C96.0686 82.9505 96.1993 82.8203 96.4587 82.8203H106.144C106.404 82.8203 106.535 82.9505 106.535 83.2187V85.4671C106.535 85.7353 106.404 85.8655 106.144 85.8655H102.976V95.63C102.976 95.8884 102.845 96.0186 102.576 96.0186H100.001C99.7421 96.0186 99.6114 95.8884 99.6114 95.63V85.8655H96.4607C96.2013 85.8655 96.0706 85.7353 96.0706 85.4671V83.2187H96.0686Z" fill="white"/>
<path d="M107.148 86.0153C107.762 84.9779 108.588 84.1554 109.64 83.544C110.681 82.9326 111.814 82.627 113.05 82.627C114.285 82.627 115.42 82.9326 116.47 83.544C117.511 84.1554 118.337 84.9798 118.951 86.0153C119.565 87.0606 119.872 88.1906 119.872 89.4213C119.872 90.652 119.565 91.7821 118.951 92.8175C118.337 93.8628 117.511 94.6872 116.47 95.2888C115.42 95.9002 114.285 96.2058 113.05 96.2058C111.814 96.2058 110.679 95.9002 109.64 95.2888C108.59 94.6872 107.762 93.8628 107.148 92.8175C106.534 91.7801 106.228 90.652 106.228 89.4213C106.228 88.1906 106.534 87.0606 107.148 86.0153ZM113.05 92.9477C114.973 92.9852 116.48 91.3462 116.442 89.4213C116.48 87.4866 114.973 85.8575 113.05 85.895C111.145 85.8575 109.62 87.4866 109.657 89.4213C109.62 91.3462 111.145 92.9852 113.05 92.9477Z" fill="white"/>
<path d="M121.349 83.2186C121.349 83.0056 121.48 82.8202 121.729 82.8202H127.65C130.076 82.7551 131.916 85.041 131.878 87.2538C131.878 87.948 131.682 88.6245 131.284 89.2813C130.886 89.938 130.363 90.4745 129.704 90.8926L132.261 95.6319C132.288 95.697 132.306 95.7423 132.306 95.7897C132.306 95.91 132.213 96.0204 132.037 96.0204H128.821C128.569 96.0204 128.486 95.9455 128.338 95.6496L126.229 91.6322H124.789V95.6319C124.789 95.8903 124.658 96.0204 124.399 96.0204H121.731C121.48 96.0204 121.351 95.8903 121.351 95.6319V83.2186H121.349ZM124.789 88.7922H126.769C127.69 88.7922 128.359 88.0151 128.359 87.1907C128.359 86.3939 127.662 85.5715 126.769 85.5715H124.789V88.7922Z" fill="white"/>
<path d="M132.047 83.2187C132.009 83.1438 131.991 83.0807 131.991 83.0333C131.991 82.8953 132.112 82.8203 132.298 82.8203H135.356C135.608 82.8203 135.736 82.9308 135.887 83.2187L137.988 87.6701L140.069 83.2187C140.218 82.9327 140.348 82.8203 140.6 82.8203H143.695C143.881 82.8203 144.002 82.8953 144.002 83.0333C144.002 83.0787 143.984 83.1438 143.947 83.2187L139.709 90.6245V95.6321C139.709 95.8904 139.578 96.0206 139.319 96.0206H136.651C136.392 96.0206 136.261 95.8904 136.261 95.6321V90.6423L132.047 83.2187Z" fill="white"/>
<path d="M51.6365 20.0262L51.6345 71.3815H62.1222V37.8474V36.453H69.3761V26.008H62.1222V20.0282C62.1618 15.5472 65.2254 11.7704 69.3761 10.6324V0C59.4112 1.28196 51.6801 9.76656 51.6365 20.0262Z" fill="white"/>
<path d="M92.3614 20.0262C92.3198 9.76656 84.5887 1.28196 74.6218 0V10.6324C78.7725 11.7704 81.8361 15.5472 81.8757 20.0282V26.008H74.6218V36.453H81.8757V37.8474V71.3834H92.3633L92.3614 20.0262Z" fill="white"/>
<path d="M28.5758 108.582H25.5142L24.8647 109.886H23.4626L26.3737 104.214H27.8114L30.6472 109.886H29.1917L28.5758 108.582ZM28.1956 107.778L27.0846 105.431L25.9162 107.778H28.1956Z" fill="white"/>
<path d="M39.804 105.955V108.145C39.804 109.139 39.1208 109.886 36.4315 109.886H33.4353V104.214H36.4315C39.1188 104.214 39.804 104.961 39.804 105.955ZM36.4315 105.019H34.7938V109.081H36.4315C38.1465 109.081 38.4455 108.565 38.4455 108.052V106.05C38.4455 105.537 38.1465 105.019 36.4315 105.019Z" fill="white"/>
<path d="M49.3037 104.214V108.216C49.3037 109.257 48.6185 110 46.1907 110C43.7628 110 43.0776 109.257 43.0776 108.216V104.214H44.4361V108.121C44.4361 108.681 44.7371 109.178 46.1907 109.178C47.6442 109.178 47.9452 108.681 47.9452 108.121V104.214H49.3037Z" fill="white"/>
<path d="M57.9994 109.081V109.886H52.708V104.214H54.0665V109.081H57.9994Z" fill="white"/>
<path d="M65.045 105.019H62.5637V109.886H61.2052V105.019H58.7239V104.214H65.043V105.019H65.045Z" fill="white"/>
<path d="M78.1944 106.359V105.973C78.1944 105.462 77.8953 104.923 76.1863 104.923C74.4773 104.923 74.1783 105.462 74.1783 105.973V108.126C74.1783 108.637 74.4773 109.176 76.1883 109.176C77.8993 109.176 78.1983 108.637 78.1983 108.126V107.6H76.1923V106.943H79.5509V108.221C79.5509 109.213 78.8677 110 76.1863 110C73.505 110 72.8198 109.213 72.8198 108.221V105.878C72.8198 104.886 73.503 104.101 76.1863 104.101C78.8697 104.101 79.5509 104.888 79.5509 105.878V106.359H78.1944Z" fill="white"/>
<path d="M87.266 108.582H84.2025L83.5549 109.886H82.1528L85.0639 104.214H86.5016L89.3374 109.886H87.8819L87.266 108.582ZM86.8838 107.778L85.7728 105.431L84.6045 107.778H86.8838Z" fill="white"/>
<path d="M92.0327 104.214H93.2565L95.722 108.237L98.1875 104.214H99.4113V109.886H98.14L98.1479 106.074L96.0686 109.561H95.3814L93.3021 106.074L93.31 109.886H92.0387V104.214H92.0327Z" fill="white"/>
<path d="M102.722 104.214H108.279V105.019H104.081V106.59H107.998V107.326H104.081V109.079H108.394V109.884H102.722V104.214Z" fill="white"/>
<path d="M116.464 106.31V105.657C116.464 105.273 116.119 104.918 114.63 104.918C113.141 104.918 112.796 105.227 112.796 105.612V105.953C112.796 107.126 117.87 106.134 117.87 108.083V108.548C117.87 109.404 117.149 110 114.63 110C112.111 110 111.39 109.306 111.39 108.468V107.791H112.749V108.444C112.749 108.829 113.093 109.184 114.63 109.184C116.165 109.184 116.511 108.874 116.511 108.489V108.148C116.511 106.975 111.455 107.967 111.455 106.018V105.553C111.455 104.699 112.246 104.101 114.63 104.101C117.014 104.101 117.806 104.797 117.806 105.633V106.31H116.464Z" fill="white"/>
</g>
<defs>
<clipPath id="clip0">
<rect width="144" height="110" fill="white"/>
</clipPath>
</defs>
</svg>
