<svg width="20" height="20" viewBox="0 0 20 20" fill="none" xmlns="http://www.w3.org/2000/svg">
<path d="M13.8462 6.92308C13.8462 3.09956 10.7466 0 6.92308 0C3.09956 0 0 3.09956 0 6.92308C0 8.37011 0.44422 9.71323 1.20334 10.8241L0.294022 13.5521L3.02207 12.6428C4.13292 13.4019 5.47604 13.8462 6.92308 13.8462C10.7466 13.8462 13.8462 10.7466 13.8462 6.92308Z" fill="#999999"/>
<path d="M19.5291 12.6059C19.5291 9.50554 17.4909 6.88176 14.6815 6C14.6896 6.15007 14.694 6.30075 14.694 6.45204C14.694 7.56409 14.4759 8.64356 14.0458 9.66048C13.6306 10.6421 13.0365 11.5233 12.28 12.2798C11.5235 13.0363 10.6422 13.6304 9.66066 14.0455C8.64374 14.4757 7.56426 14.6938 6.45222 14.6938C6.30088 14.6938 6.1502 14.6888 6 14.6807C6.88154 17.4904 9.50545 19.529 12.6061 19.529C14.0531 19.529 15.3962 19.0847 16.5071 18.3256L19.2352 19.2349L18.3258 16.5069C19.0849 15.3961 19.5291 14.0529 19.5291 12.6059Z" fill="#999999"/>
</svg>
