<svg width="20" height="20" viewBox="0 0 20 20" fill="none" xmlns="http://www.w3.org/2000/svg">
<path fill-rule="evenodd" clip-rule="evenodd" d="M15.4818 20C17.9732 20 20 17.9731 20 15.4818V4.51823C20 2.02682 17.9732 0 15.4818 0H4.51823C2.02677 0 0 2.02688 0 4.51823V15.4818C0 17.9732 2.02677 20 4.51823 20H15.4818ZM16.7112 3.28863C16.5318 3.10923 16.2834 3.00639 16.0299 3.00639C15.7764 3.00639 15.528 3.10918 15.3485 3.28863C15.1691 3.46812 15.0663 3.71607 15.0663 3.97003C15.0663 4.22399 15.1691 4.47194 15.3485 4.65139C15.528 4.83083 15.7764 4.93367 16.0299 4.93367C16.2834 4.93367 16.5318 4.83088 16.7112 4.65139C16.8907 4.47194 16.9936 4.22358 16.9936 3.97003C16.9936 3.71643 16.8907 3.46807 16.7112 3.28863ZM10.1601 15.3871C13.0878 15.3871 15.4612 13.0138 15.4612 10.0861C15.4612 7.15846 13.0878 4.78516 10.1601 4.78516C7.23246 4.78516 4.85921 7.15846 4.85921 10.0861C4.85921 13.0138 7.23246 15.3871 10.1601 15.3871Z" fill="#999999"/>
<path d="M13.6939 10.0859C13.6939 12.0377 12.1117 13.6199 10.16 13.6199C8.20819 13.6199 6.62598 12.0377 6.62598 10.0859C6.62598 8.13414 8.20819 6.55192 10.16 6.55192C12.1117 6.55192 13.6939 8.13414 13.6939 10.0859Z" fill="#999999"/>
</svg>
