<svg width="38" height="16" viewBox="0 0 38 16" fill="none" xmlns="http://www.w3.org/2000/svg">
    <path d="M6.94332 2.0628C6.49795 2.60324 5.78537 3.0295 5.07279 2.9686C4.98372 2.23787 5.33259 1.46147 5.74084 0.981922C6.1862 0.426261 6.96559 0.0304472 7.59652 0C7.67074 0.76118 7.38126 1.50714 6.94332 2.0628ZM7.58909 3.11323C6.55734 3.05233 5.67403 3.71456 5.18413 3.71456C4.68681 3.71456 3.93711 3.14367 3.12061 3.1589C2.05916 3.17412 1.07194 3.79068 0.530083 4.7726C-0.583326 6.73644 0.240596 9.64415 1.31689 11.2426C1.8439 12.0343 2.47484 12.902 3.30618 12.8716C4.09299 12.8411 4.40474 12.3463 5.35485 12.3463C6.31239 12.3463 6.58703 12.8716 7.41837 12.8563C8.27941 12.8411 8.82127 12.0647 9.34828 11.2731C9.94952 10.3749 10.1945 9.49952 10.2093 9.45385C10.1945 9.43863 8.54663 8.79163 8.53178 6.84301C8.51693 5.21408 9.83076 4.43768 9.89014 4.39201C9.14787 3.26546 7.98992 3.14367 7.58909 3.11323ZM13.5495 0.905804V12.7726H15.3458V8.71551H17.8325C20.1038 8.71551 21.6997 7.11703 21.6997 4.80304C21.6997 2.48906 20.1335 0.905804 17.8918 0.905804H13.5495ZM15.3458 2.45861H17.4168C18.9756 2.45861 19.8663 3.31113 19.8663 4.81066C19.8663 6.31018 18.9756 7.17031 17.4094 7.17031H15.3458V2.45861ZM24.9805 12.8639C26.1088 12.8639 27.1554 12.2778 27.6305 11.3492H27.6676V12.7726H29.3303V6.86584C29.3303 5.15319 27.9942 4.04948 25.9381 4.04948C24.0304 4.04948 22.6201 5.16841 22.5682 6.70599H24.1863C24.3199 5.97526 24.9805 5.49572 25.8861 5.49572C26.9847 5.49572 27.6008 6.02093 27.6008 6.98763V7.64225L25.3591 7.77926C23.2733 7.90866 22.1451 8.78401 22.1451 10.3064C22.1451 11.844 23.3104 12.8639 24.9805 12.8639ZM25.463 11.4558C24.5055 11.4558 23.8968 10.9838 23.8968 10.2607C23.8968 9.51475 24.4832 9.08088 25.604 9.01237L27.6008 8.88297V9.55281C27.6008 10.6641 26.6803 11.4558 25.463 11.4558ZM31.5497 16C33.3014 16 34.1253 15.3149 34.8453 13.2369L38 4.16365H36.174L34.0585 11.1741H34.0214L31.9059 4.16365H30.028L33.0713 12.803L32.908 13.3283C32.6334 14.2188 32.188 14.5614 31.3938 14.5614C31.2527 14.5614 30.9781 14.5461 30.8668 14.5309V15.9543C30.9707 15.9848 31.416 16 31.5497 16Z" fill="white"/>
</svg>
