<svg width="1920" height="792" viewBox="0 0 1920 792" fill="none" xmlns="http://www.w3.org/2000/svg">
<g opacity="0.05" clip-path="url(#clip0)">
<path d="M1536.02 345.963L1536 907.473H1650.58V540.817V525.571H1729.83V411.367H1650.58V345.984C1651.02 296.99 1684.49 255.695 1729.83 243.252V127C1620.96 141.017 1536.5 233.786 1536.02 345.963Z" fill="white"/>
<path d="M1980.96 345.963C1980.5 233.786 1896.04 141.017 1787.15 127V243.252C1832.49 255.695 1865.96 296.99 1866.4 345.984V411.367H1787.15V525.571H1866.4V540.817V907.494H1980.98L1980.96 345.963Z" fill="white"/>
<path d="M1018.02 345.963L1018 907.473H1132.58V540.817V525.571H1211.83V411.367H1132.58V345.984C1133.02 296.99 1166.49 255.695 1211.83 243.252V127C1102.96 141.017 1018.5 233.786 1018.02 345.963Z" fill="white"/>
<path d="M1462.96 345.963C1462.5 233.786 1378.04 141.017 1269.15 127V243.252C1314.49 255.695 1347.96 296.99 1348.4 345.984V411.367H1269.15V525.571H1348.4V540.817V907.494H1462.98L1462.96 345.963Z" fill="white"/>
</g>
<g opacity="0.05" clip-path="url(#clip1)">
<path d="M530.022 345.963L530 907.473H644.582V540.817V525.571H723.834V411.367H644.582V345.984C645.015 296.99 678.485 255.695 723.834 243.252V127C614.963 141.017 530.498 233.786 530.022 345.963Z" fill="white"/>
<path d="M974.957 345.963C974.502 233.786 890.037 141.017 781.145 127V243.252C826.493 255.695 859.964 296.99 860.396 345.984V411.367H781.145V525.571H860.396V540.817V907.494H974.978L974.957 345.963Z" fill="white"/>
<path d="M12.0217 345.963L12 907.473H126.582V540.817V525.571H205.834V411.367H126.582V345.984C127.015 296.99 160.485 255.695 205.834 243.252V127C96.9631 141.017 12.4976 233.786 12.0217 345.963Z" fill="white"/>
<path d="M456.957 345.963C456.502 233.786 372.037 141.017 263.145 127V243.252C308.493 255.695 341.964 296.99 342.396 345.984V411.367H263.145V525.571H342.396V540.817V907.494H456.978L456.957 345.963Z" fill="white"/>
</g>
<defs>
<clipPath id="clip0">
<rect width="1036" height="792" fill="white" transform="translate(945 -0.00012207)"/>
</clipPath>
<clipPath id="clip1">
<rect width="1036" height="792" fill="white" transform="translate(-61 -0.00012207)"/>
</clipPath>
</defs>
</svg>
