<svg width="1920" height="792" viewBox="0 0 1920 792" fill="none" xmlns="http://www.w3.org/2000/svg">
<g opacity="0.05" clip-path="url(#clip0)">
<path d="M383.978 446.037L384 -115.473L269.418 -115.473L269.418 251.183L269.418 266.429L190.166 266.429L190.166 380.633L269.418 380.633L269.418 446.016C268.985 495.009 235.515 536.305 190.166 548.747L190.166 665C299.037 650.983 383.502 558.214 383.978 446.037Z" fill="white"/>
<path d="M-60.9568 446.037C-60.5025 558.214 23.9628 650.983 132.855 665L132.855 548.747C87.5065 536.305 54.0363 495.009 53.6036 446.016L53.6036 380.633L132.855 380.633L132.855 266.429L53.6035 266.429L53.6035 251.183L53.6035 -115.494L-60.9785 -115.494L-60.9568 446.037Z" fill="white"/>
<path d="M901.978 446.037L902 -115.473L787.418 -115.473L787.418 251.183L787.418 266.429L708.166 266.429L708.166 380.633L787.418 380.633L787.418 446.016C786.985 495.009 753.515 536.305 708.166 548.747L708.166 665C817.037 650.983 901.502 558.214 901.978 446.037Z" fill="white"/>
<path d="M457.043 446.037C457.498 558.214 541.963 650.983 650.855 665L650.855 548.747C605.507 536.305 572.036 495.009 571.604 446.016L571.604 380.633L650.855 380.633L650.855 266.429L571.604 266.429L571.604 251.183L571.604 -115.494L457.021 -115.494L457.043 446.037Z" fill="white"/>
</g>
<g opacity="0.05" clip-path="url(#clip1)">
<path d="M1389.98 446.037L1390 -115.473L1275.42 -115.473L1275.42 251.183L1275.42 266.429L1196.17 266.429L1196.17 380.633L1275.42 380.633L1275.42 446.015C1274.98 495.009 1241.51 536.305 1196.17 548.747L1196.17 665C1305.04 650.983 1389.5 558.214 1389.98 446.037Z" fill="white"/>
<path d="M945.043 446.037C945.498 558.214 1029.96 650.983 1138.85 665L1138.85 548.747C1093.51 536.305 1060.04 495.009 1059.6 446.015L1059.6 380.633L1138.85 380.633L1138.85 266.429L1059.6 266.429L1059.6 251.183L1059.6 -115.495L945.021 -115.495L945.043 446.037Z" fill="white"/>
<path d="M1907.98 446.037L1908 -115.473L1793.42 -115.473L1793.42 251.183L1793.42 266.429L1714.17 266.429L1714.17 380.633L1793.42 380.633L1793.42 446.015C1792.98 495.009 1759.51 536.305 1714.17 548.747L1714.17 665C1823.04 650.983 1907.5 558.214 1907.98 446.037Z" fill="white"/>
<path d="M1463.04 446.037C1463.5 558.214 1547.96 650.983 1656.85 665L1656.85 548.747C1611.51 536.305 1578.04 495.009 1577.6 446.015L1577.6 380.633L1656.85 380.633L1656.85 266.429L1577.6 266.429L1577.6 251.183L1577.6 -115.495L1463.02 -115.495L1463.04 446.037Z" fill="white"/>
</g>
<defs>
<clipPath id="clip0">
<rect width="1036" height="792" fill="white" transform="translate(975 792) rotate(180)"/>
</clipPath>
<clipPath id="clip1">
<rect width="1036" height="792" fill="white" transform="translate(1981 792) rotate(180)"/>
</clipPath>
</defs>
</svg>
