<svg width="86" height="15" viewBox="0 0 86 15" fill="none" xmlns="http://www.w3.org/2000/svg">
<path d="M23.5509 12.1462V11.9046H23.6488V11.8567H23.4009V11.9067H23.4988V12.1483H23.5509V12.1462ZM24.0321 12.1462V11.8546H23.9571L23.8696 12.0546L23.7821 11.8546H23.7071V12.1462H23.7613V11.9275L23.8425 12.1171H23.8988L23.98 11.9275V12.1483H24.0321V12.1462ZM37.1678 10.0257V6.89488C37.1678 5.71587 36.4158 4.92223 35.2055 4.91182C34.5681 4.9014 33.912 5.09929 33.4537 5.7992C33.11 5.24719 32.5663 4.91182 31.806 4.91182C31.2748 4.91182 30.752 5.06805 30.3458 5.65338V5.0368H29.2605V10.0236H30.3562V7.26149C30.3562 6.39495 30.8353 5.93668 31.5769 5.93668C32.2976 5.93668 32.6621 6.40536 32.6621 7.25108V10.0257H33.7578V7.26149C33.7578 6.39495 34.2577 5.93668 34.9785 5.93668C35.72 5.93668 36.0742 6.40536 36.0742 7.25108V10.0257H37.1678ZM53.3801 5.03888H51.6074V3.52659H50.5117V5.03888H49.4994V6.03041H50.5117V8.3051C50.5117 9.46327 50.9596 10.1528 52.2427 10.1528C52.7114 10.1528 53.2551 10.0069 53.5988 9.7674L53.2864 8.83836C52.9635 9.02583 52.6073 9.11957 52.3261 9.11957C51.7845 9.11957 51.6053 8.78628 51.6053 8.28427V6.03041H53.378V5.03888H53.3801ZM62.6351 4.9139C62.0081 4.9139 61.6019 5.20553 61.3207 5.64505V5.04097H60.2458V10.0278H61.3311V7.23025C61.3311 6.40536 61.6852 5.94709 62.3955 5.94709C62.6142 5.94709 62.8434 5.97834 63.0746 6.07207L63.4079 5.0493C63.1662 4.95556 62.8538 4.9139 62.6351 4.9139ZM48.6432 5.43466C48.1225 5.09096 47.4017 4.9139 46.6081 4.9139C45.3458 4.9139 44.5313 5.51798 44.5313 6.50951C44.5313 7.32398 45.1354 7.82391 46.2519 7.98014L46.7623 8.05305C47.3559 8.13637 47.6392 8.2926 47.6392 8.57381C47.6392 8.95917 47.2434 9.17789 46.5019 9.17789C45.7499 9.17789 45.2083 8.93834 44.8438 8.65713L44.3334 9.50285C44.9271 9.94029 45.6791 10.1507 46.4935 10.1507C47.9329 10.1507 48.7682 9.4716 48.7682 8.52382C48.7682 7.64686 48.11 7.18859 47.0268 7.03236L46.5165 6.95945C46.0478 6.89696 45.6707 6.80322 45.6707 6.46994C45.6707 6.1054 46.0249 5.8846 46.6206 5.8846C47.258 5.8846 47.8725 6.12415 48.1746 6.31162L48.6432 5.43466ZM77.7121 4.9139C77.0851 4.9139 76.6789 5.20553 76.3977 5.64505V5.04097H75.3229V10.0278H76.4081V7.23025C76.4081 6.40536 76.7623 5.94709 77.4726 5.94709C77.6913 5.94709 77.9204 5.97834 78.1516 6.07207L78.4849 5.0493C78.2433 4.95556 77.9308 4.9139 77.7121 4.9139ZM63.7307 7.53229C63.7307 9.04458 64.7848 10.1507 66.3908 10.1507C67.1428 10.1507 67.6427 9.98403 68.1843 9.55492L67.6635 8.67796C67.2573 8.96959 66.8282 9.12582 66.3595 9.12582C65.493 9.1154 64.8577 8.48841 64.8577 7.53021C64.8577 6.56992 65.4951 5.94501 66.3595 5.93459C66.8282 5.93459 67.2573 6.09082 67.6635 6.38245L68.1843 5.50549C67.6427 5.07846 67.1407 4.90974 66.3908 4.90974C64.7848 4.9139 63.7307 6.02 63.7307 7.53229ZM73.8918 7.53229V5.03888H72.8066V5.64297C72.4629 5.19511 71.94 4.91182 71.2318 4.91182C69.8341 4.91182 68.7384 6.0075 68.7384 7.53021C68.7384 9.05291 69.8341 10.1486 71.2318 10.1486C71.9421 10.1486 72.4629 9.86738 72.8066 9.41744V10.0215H73.8918V7.53229ZM69.8549 7.53229C69.8549 6.65533 70.4277 5.93668 71.3672 5.93668C72.265 5.93668 72.869 6.62616 72.869 7.53229C72.869 8.43841 72.265 9.1279 71.3672 9.1279C70.4277 9.1279 69.8549 8.40925 69.8549 7.53229ZM56.7609 4.9139C55.3007 4.9139 54.2779 5.97834 54.2779 7.53229C54.2779 9.11748 55.3423 10.1507 56.8338 10.1507C57.5858 10.1507 58.2732 9.9632 58.8793 9.45077L58.3481 8.64672C57.9315 8.98 57.3983 9.16748 56.8983 9.16748C56.1984 9.16748 55.5631 8.84461 55.4069 7.94681H59.1105C59.121 7.81142 59.1314 7.67602 59.1314 7.53021C59.1189 5.97834 58.1586 4.9139 56.7609 4.9139ZM56.74 5.88252C57.4399 5.88252 57.8878 6.31996 58.0024 7.09277H55.4152C55.5298 6.37411 55.9672 5.88252 56.74 5.88252ZM83.9613 7.53229V3.035H82.876V5.64297C82.5323 5.19511 82.0094 4.91182 81.3012 4.91182C79.9035 4.91182 78.8078 6.0075 78.8078 7.53021C78.8078 9.05291 79.9035 10.1486 81.3012 10.1486C82.0115 10.1486 82.5323 9.86738 82.876 9.41744V10.0215H83.9613V7.53229ZM85.2277 9.56534C85.2715 9.56534 85.3131 9.57367 85.3527 9.59033C85.3923 9.607 85.4256 9.62991 85.4548 9.65908C85.484 9.68824 85.5069 9.72157 85.5235 9.75906C85.5402 9.79656 85.5485 9.83822 85.5485 9.88196C85.5485 9.9257 85.5402 9.96528 85.5235 10.0049C85.5069 10.0424 85.484 10.0757 85.4548 10.1048C85.4256 10.134 85.3923 10.1569 85.3527 10.1736C85.3131 10.1903 85.2715 10.1986 85.2277 10.1986C85.1819 10.1986 85.1403 10.1903 85.1007 10.1736C85.0611 10.1569 85.0278 10.134 84.9986 10.1048C84.9695 10.0757 84.9465 10.0424 84.9299 10.0049C84.9132 9.96737 84.9049 9.9257 84.9049 9.88196C84.9049 9.83822 84.9132 9.79656 84.9299 9.75906C84.9465 9.71948 84.9695 9.68616 84.9986 9.65908C85.0278 9.62991 85.0611 9.607 85.1007 9.59033C85.1403 9.57367 85.184 9.56534 85.2277 9.56534ZM85.2277 10.1278C85.2611 10.1278 85.2944 10.1215 85.3236 10.109C85.3527 10.0965 85.3798 10.0778 85.4006 10.0569C85.4236 10.034 85.4402 10.009 85.4527 9.97778C85.4652 9.94862 85.4715 9.91529 85.4715 9.88196C85.4715 9.84863 85.4652 9.8153 85.4527 9.78614C85.4402 9.75698 85.4236 9.7299 85.4006 9.70699C85.3777 9.68407 85.3527 9.66741 85.3236 9.65491C85.2944 9.64241 85.2632 9.63616 85.2277 9.63616C85.1923 9.63616 85.1611 9.64241 85.1299 9.65491C85.0986 9.66741 85.0736 9.68407 85.0507 9.70699C85.0278 9.7299 85.0111 9.7549 84.9986 9.78614C84.9861 9.8153 84.9799 9.84863 84.9799 9.88196C84.9799 9.91529 84.9861 9.94862 84.9986 9.97778C85.0111 10.0069 85.0278 10.034 85.0507 10.0569C85.0736 10.0799 85.0986 10.0965 85.1299 10.109C85.1611 10.1215 85.1944 10.1278 85.2277 10.1278ZM85.2465 9.73407C85.284 9.73407 85.3132 9.7424 85.334 9.75906C85.3548 9.77573 85.3652 9.79864 85.3652 9.8278C85.3652 9.8528 85.3569 9.87155 85.3402 9.88821C85.3236 9.90487 85.3007 9.91321 85.2715 9.91737L85.3673 10.0278H85.2923L85.2028 9.91737H85.1736V10.0278H85.1111V9.73407H85.2465ZM85.1736 9.78823V9.86738H85.2465C85.2632 9.86738 85.2757 9.86322 85.2861 9.85697C85.2965 9.85072 85.3007 9.8403 85.3007 9.8278C85.3007 9.8153 85.2965 9.80489 85.2861 9.79864C85.2757 9.79239 85.2632 9.78823 85.2465 9.78823H85.1736ZM79.9222 7.53229C79.9222 6.65533 80.4951 5.93668 81.4345 5.93668C82.3323 5.93668 82.9364 6.62616 82.9364 7.53229C82.9364 8.43841 82.3323 9.1279 81.4345 9.1279C80.4972 9.1279 79.9222 8.40925 79.9222 7.53229ZM43.2815 7.53229V5.03888H42.1962V5.64297C41.8525 5.19511 41.3297 4.91182 40.6214 4.91182C39.2237 4.91182 38.128 6.0075 38.128 7.53021C38.128 9.05291 39.2237 10.1486 40.6214 10.1486C41.3318 10.1486 41.8525 9.86738 42.1962 9.41744V10.0215H43.2815V7.53229ZM39.2425 7.53229C39.2425 6.65533 39.8153 5.93668 40.7548 5.93668C41.6525 5.93668 42.2566 6.62616 42.2566 7.53229C42.2566 8.43841 41.6525 9.1279 40.7548 9.1279C39.8174 9.1279 39.2425 8.40925 39.2425 7.53229ZM11.4692 13.596C11.5276 13.646 11.5901 13.696 11.6505 13.746C10.461 14.5376 9.03416 15 7.49896 15C3.35787 15 0 11.6421 0 7.50104C0 3.35995 3.35787 0.00208309 7.49896 0.00208309C9.03416 0.00208309 10.461 0.464519 11.6505 1.25608C11.5901 1.30607 11.5276 1.35398 11.4692 1.40605C9.70282 2.94334 8.68838 5.16595 8.68838 7.50104C8.68838 9.83613 9.70282 12.0587 11.4692 13.596ZM16.7685 0C15.2333 0 13.8064 0.462436 12.617 1.25399C12.6774 1.30399 12.7399 1.3519 12.7982 1.40397C14.5646 2.94126 15.5791 5.16178 15.5791 7.49896C15.5791 9.83613 14.5667 12.0567 12.8003 13.5939C12.742 13.6439 12.6795 13.6939 12.6191 13.7439C13.8085 14.5355 15.2354 14.9979 16.7706 14.9979C20.9117 14.9979 24.2695 11.6401 24.2695 7.49896C24.2675 3.35787 20.9096 0 16.7685 0ZM12.1337 1.60603C12.0379 1.6831 11.9421 1.76017 11.8504 1.84141C10.2694 3.21622 9.26955 5.24094 9.26955 7.49896C9.26955 9.75698 10.2694 11.7817 11.8504 13.1565C11.9421 13.2377 12.0379 13.3148 12.1337 13.3919C12.2296 13.3148 12.3254 13.2377 12.417 13.1565C13.9981 11.7817 14.9979 9.75698 14.9979 7.49896C14.9979 5.24094 13.9981 3.21622 12.417 1.84141C12.3254 1.76017 12.2296 1.6831 12.1337 1.60603Z" fill="white"/>
</svg>
