<svg width="57" height="20" viewBox="0 0 57 20" fill="none" xmlns="http://www.w3.org/2000/svg">
<path fill-rule="evenodd" clip-rule="evenodd" d="M24.8643 3.39258C24.8643 3.39258 24.8643 3.39258 26.0589 3.39258C26.4943 3.39258 26.7136 3.60463 26.7136 4.08334C26.7136 4.08334 26.7136 4.08334 26.7136 5.77973C26.7136 5.77973 26.7136 5.77973 29.0538 5.77973C29.0538 5.77973 29.0538 5.77973 29.0538 4.08334C29.0538 3.60463 29.2699 3.39258 29.7608 3.39258C29.7608 3.39258 29.7608 3.39258 30.9032 3.39258C30.9032 3.39258 30.9032 3.39258 30.9032 4.50744C30.9032 4.50744 30.9032 4.50744 30.4155 4.50744L30.3598 4.56206C30.3598 4.56206 30.3598 4.56206 30.3598 9.33635C30.3598 9.33635 30.3598 9.33635 29.0538 9.33635C29.0538 9.33635 29.0538 9.33635 29.0538 6.94921C29.0538 6.94921 29.0538 6.94921 26.7136 6.94921C26.7136 6.94921 26.7136 6.9492 26.7136 9.33635C26.7136 9.33635 26.7136 9.33635 25.4076 9.33635C25.4076 9.33635 25.4076 9.33635 25.4076 4.56206C25.4076 4.56206 25.4076 4.50744 25.352 4.50744C25.352 4.50744 25.352 4.50744 24.8643 4.50744C24.8643 4.50744 24.8643 4.50744 24.8643 3.39258Z" fill="white"/>
<path fill-rule="evenodd" clip-rule="evenodd" d="M34.3301 3.28662L34.3595 3.28983V4.51393L34.3301 4.5075C33.3514 4.5075 32.5888 5.30429 32.5888 6.31313C32.5888 7.37337 33.3514 8.22156 34.3301 8.22156L34.3595 8.21514V9.43923L34.3301 9.44244C32.5888 9.44244 31.1748 8.06413 31.1748 6.31313C31.1748 4.61353 32.5888 3.28662 34.3301 3.28662Z" fill="white"/>
<path fill-rule="evenodd" clip-rule="evenodd" d="M34.3594 3.28906L34.9649 3.3469C36.4018 3.6232 37.4852 4.82481 37.4852 6.31236C37.4852 7.84167 36.4018 9.09147 34.9649 9.37742L34.3594 9.43846V8.21436L35.0238 8.073C35.6653 7.78384 36.1269 7.10593 36.1269 6.31236C36.1269 5.55412 35.6653 4.91798 35.0238 4.6481L34.3594 4.51316V3.28906Z" fill="white"/>
<path fill-rule="evenodd" clip-rule="evenodd" d="M37.7571 3.39258C37.7571 3.39258 37.7571 3.39258 39.5802 3.39258H40.4509V4.50744H40.369C40.261 4.50744 40.0417 4.50744 39.6064 4.50744C39.6064 4.50744 39.6064 4.50744 39.6064 5.72832C39.6064 5.72832 39.6064 5.72832 39.9763 5.72832H40.4509V6.78856H40.1726C40.0352 6.78856 39.8519 6.78856 39.6064 6.78856C39.6064 6.78856 39.6064 6.78856 39.6064 8.11547C39.6064 8.17009 39.6064 8.17009 39.662 8.17009C39.662 8.17009 39.662 8.17009 40.0515 8.17009H40.4509V9.33635H40.3363C40.1399 9.33635 39.7439 9.33635 38.955 9.33635C38.5197 9.33635 38.3037 9.12431 38.3037 8.64559V4.50744C38.3037 4.50744 38.3037 4.50744 37.7571 4.50744C37.7571 4.50744 37.7571 4.50744 37.7571 3.39258Z" fill="white"/>
<path fill-rule="evenodd" clip-rule="evenodd" d="M40.4507 3.39258H40.4769C41.6748 3.39258 42.3818 4.02872 42.3818 4.98615C42.3818 5.56768 42.1101 5.94037 41.8385 6.20704C42.3294 6.41909 42.6535 6.9492 42.6535 7.53073C42.6535 8.64559 41.7828 9.33635 40.5325 9.33635C40.5325 9.33635 40.5325 9.33635 40.5096 9.33635H40.4507V8.17009H40.5849C41.0202 8.17009 41.2951 7.90342 41.2951 7.47933C41.2951 7.05523 41.0202 6.78856 40.5849 6.78856C40.5849 6.78856 40.5849 6.78856 40.4638 6.78856H40.4507V5.72832H40.4769C40.8598 5.72832 41.0758 5.46166 41.0758 5.09218C41.0758 4.71949 40.8598 4.50744 40.4769 4.50744C40.4769 4.50744 40.4769 4.50744 40.4638 4.50744H40.4507V3.39258Z" fill="white"/>
<path fill-rule="evenodd" clip-rule="evenodd" d="M45.1578 3.39258C45.1578 3.39258 45.1578 3.39258 45.7077 3.39258H45.8092V5.09218C45.7568 5.1982 45.7012 5.35563 45.7012 5.51627C45.7012 5.51627 45.7012 5.51627 45.2658 6.73716C45.2658 6.73716 45.2658 6.73716 45.7273 6.73716H45.8092V7.8488H45.5146C45.3477 7.8488 45.1578 7.8488 44.9418 7.8488C44.9418 7.8488 44.9418 7.8488 44.5588 8.80623C44.4508 9.17571 44.2348 9.33635 43.7995 9.33635C43.7995 9.33635 43.7995 9.33635 42.9812 9.33635C42.9812 9.33635 42.9812 9.33635 42.9812 8.17009C42.9812 8.17009 42.9812 8.17009 43.2529 8.17009C43.3642 8.17009 43.3642 8.17009 43.4165 8.11547C43.4165 8.11547 43.4165 8.11547 45.1578 3.39258Z" fill="white"/>
<path fill-rule="evenodd" clip-rule="evenodd" d="M45.8088 3.39258H46.4635C46.4635 3.39258 46.4635 3.39258 48.2048 8.11547C48.2571 8.17009 48.2571 8.17009 48.3651 8.17009C48.3651 8.17009 48.3651 8.17009 48.5844 8.17009C48.5844 8.17009 48.5844 8.17009 48.5844 9.33635C48.5844 9.33635 48.5844 9.33635 47.8218 9.33635C47.3865 9.33635 47.1705 9.17571 47.0592 8.75161C47.0592 8.75161 47.0592 8.75162 46.6795 7.8488C46.6795 7.8488 46.6795 7.8488 45.9463 7.8488H45.8088V6.73716H46.3522C46.3522 6.73716 46.3522 6.73716 45.9201 5.51627C45.9201 5.35563 45.8645 5.1982 45.8088 5.09218V3.39258Z" fill="white"/>
<path fill-rule="evenodd" clip-rule="evenodd" d="M24.8643 11.0332C24.8643 11.0332 24.8643 11.0332 29.5972 11.0332C30.0325 11.0332 30.3042 11.2453 30.3042 11.724C30.3042 11.724 30.3042 11.724 30.3042 15.7561C30.3042 15.8075 30.3042 15.8075 30.3598 15.8075C30.3598 15.8075 30.3598 15.8075 30.7951 15.8075C30.7951 15.8075 30.7951 15.8075 30.7951 16.977C30.7951 16.977 30.7951 16.977 29.6528 16.977C29.1619 16.977 28.9458 16.7649 28.9458 16.2862C28.9458 16.2862 28.9458 16.2862 28.9458 12.2027C28.9458 12.2027 28.9458 12.1481 28.8902 12.1481C28.8902 12.1481 28.8902 12.1481 26.7136 12.1481C26.7136 12.1481 26.7136 12.1481 26.7136 16.977C26.7136 16.977 26.7136 16.977 25.4076 16.977C25.4076 16.977 25.4076 16.977 25.4076 12.1481C25.4076 12.1481 25.4076 12.1481 24.8643 12.1481C24.8643 12.1481 24.8643 12.1481 24.8643 11.0332Z" fill="white"/>
<path fill-rule="evenodd" clip-rule="evenodd" d="M34.2221 10.9263L34.2482 10.9295V12.1536L34.2221 12.1472C33.2401 12.1472 32.4808 12.9439 32.4808 13.9528C32.4808 15.013 33.2401 15.8612 34.2221 15.8612L34.2482 15.8548V17.0789L34.2221 17.0821C32.4808 17.0821 31.1191 15.7006 31.1191 13.9528C31.1191 12.2532 32.4808 10.9263 34.2221 10.9263Z" fill="white"/>
<path fill-rule="evenodd" clip-rule="evenodd" d="M34.2483 10.9302L34.8735 10.988C36.3365 11.2643 37.3774 12.4659 37.3774 13.9535C37.3774 15.4828 36.3365 16.7326 34.8735 17.0185L34.2483 17.0796V15.8555L34.9389 15.7141C35.5903 15.425 36.019 14.747 36.019 13.9535C36.019 13.1952 35.5903 12.5591 34.9389 12.2892L34.2483 12.1543V10.9302Z" fill="white"/>
<path fill-rule="evenodd" clip-rule="evenodd" d="M37.6489 11.0332C37.6489 11.0332 37.6489 11.0332 38.8469 11.0332C39.2822 11.0332 39.4982 11.2453 39.4982 11.724C39.4982 11.724 39.4982 11.724 39.4982 15.7561C39.4982 15.8075 39.4982 15.8075 39.5539 15.8075C39.5539 15.8075 39.5539 15.8075 41.1315 15.8075C41.1315 15.8075 41.1315 15.8075 41.1315 11.0332C41.1315 11.0332 41.1315 11.0332 42.4375 11.0332C42.4375 11.0332 42.4375 11.0332 42.4375 15.8075C42.4375 15.8075 42.4375 15.8075 44.0151 15.8075C44.0708 15.8075 44.0708 15.8075 44.0708 15.7561C44.0708 15.7561 44.0708 15.7561 44.0708 11.724C44.0708 11.2453 44.2868 11.0332 44.7221 11.0332C44.7221 11.0332 44.7221 11.0332 45.9201 11.0332C45.9201 11.0332 45.9201 11.0332 45.9201 12.1481C45.9201 12.1481 45.9201 12.1481 45.4291 12.1481C45.3735 12.1481 45.3735 12.2027 45.3735 12.2027C45.3735 12.2027 45.3735 12.2027 45.3735 16.2862C45.3735 16.7649 45.1575 16.977 44.7221 16.977C44.7221 16.977 44.7221 16.977 38.8993 16.977C38.4116 16.977 38.1923 16.7649 38.1923 16.2862C38.1923 16.2862 38.1923 16.2862 38.1923 12.2027C38.1923 12.2027 38.1923 12.1481 38.1399 12.1481C38.1399 12.1481 38.1399 12.1481 37.6489 12.1481C37.6489 12.1481 37.6489 12.1481 37.6489 11.0332Z" fill="white"/>
<path fill-rule="evenodd" clip-rule="evenodd" d="M46.9513 11.0332C46.9513 11.0332 46.9513 11.0332 51.0329 11.0332C51.5238 11.0332 51.6875 11.2453 51.6875 11.6693C51.6875 11.6693 51.6875 11.6693 51.6875 12.6782H50.4895C50.4895 12.6782 50.4895 12.6782 50.4895 12.2027C50.4895 12.1481 50.4895 12.1481 50.4339 12.1481C50.4339 12.1481 50.4339 12.1481 49.6745 12.1481C49.6745 12.1481 49.6745 12.1481 49.6745 16.977C49.6745 16.977 49.6745 16.977 48.3653 16.977C48.3653 16.977 48.3653 16.977 48.3653 12.1481C48.3653 12.1481 48.3653 12.1481 47.6059 12.1481C47.5503 12.1481 47.5503 12.1481 47.5503 12.2027C47.5503 12.2027 47.5503 12.2027 47.5503 12.6782C47.5503 12.6782 47.5503 12.6782 46.3523 12.6782C46.3523 12.6782 46.3523 12.6782 46.3523 11.6693C46.3523 11.2453 46.516 11.0332 46.9513 11.0332Z" fill="white"/>
<path fill-rule="evenodd" clip-rule="evenodd" d="M53.3729 11.0332C53.3729 11.0332 53.3729 11.0332 53.9228 11.0332H54.0243V12.7328C53.9686 12.8388 53.9163 12.9963 53.9163 13.1569C53.9163 13.1569 53.9163 13.1569 53.4809 14.3778C53.4809 14.3778 53.4809 14.3778 53.9392 14.3778H54.0243V15.4894H53.7297C53.5628 15.4894 53.3729 15.4894 53.1536 15.4894C53.1536 15.4894 53.1536 15.4894 52.7739 16.3922C52.6659 16.8163 52.4466 16.977 52.0113 16.977C52.0113 16.977 52.0113 16.977 51.1963 16.977C51.1963 16.977 51.1963 16.977 51.1963 15.8075C51.1963 15.8075 51.1963 15.8075 51.468 15.8075C51.5792 15.8075 51.5792 15.8075 51.6316 15.7561C51.6316 15.7561 51.6316 15.7561 53.3729 11.0332Z" fill="white"/>
<path fill-rule="evenodd" clip-rule="evenodd" d="M54.0244 11.0332H54.6758C54.6758 11.0332 54.6758 11.0332 56.4203 15.7561C56.4727 15.8075 56.4727 15.8075 56.584 15.8075H56.8C56.8 15.8075 56.8 15.8075 56.8 16.977C56.8 16.977 56.8 16.977 56.0374 16.977C55.602 16.977 55.386 16.8163 55.2747 16.3922C55.2747 16.3922 55.2747 16.3922 54.8951 15.4894C54.8951 15.4894 54.8951 15.4894 54.1619 15.4894H54.0244V14.3778H54.5677C54.5677 14.3778 54.5677 14.3778 54.1324 13.1569C54.1324 12.9963 54.0801 12.8388 54.0244 12.7328V11.0332Z" fill="white"/>
<path fill-rule="evenodd" clip-rule="evenodd" d="M16.4787 5.92079C16.5409 5.90151 16.6227 5.94007 16.7045 6.04609C16.7045 6.04609 16.7045 6.04609 20.4031 9.59951C20.6192 9.81155 20.6192 10.1328 20.4031 10.2903C20.4031 10.2903 20.4031 10.2903 16.7045 13.8983C16.6227 14.0043 16.5409 14.03 16.4787 13.9979C16.4165 13.9658 16.3772 13.8726 16.3772 13.7377V6.15212C16.3772 6.02039 16.4165 5.94007 16.4787 5.92079Z" fill="white"/>
<path fill-rule="evenodd" clip-rule="evenodd" d="M10.1517 -0.000488281H10.4135L10.6655 0.102323C10.6655 0.102323 10.6655 0.102323 14.4722 3.81638C14.6358 4.02843 14.5802 4.18907 14.3085 4.18907C14.3085 4.18907 14.3085 4.18907 12.7309 4.18907C12.4592 4.18907 12.2432 4.40112 12.2432 4.66778C12.2432 4.66778 12.2432 4.66778 12.2432 7.42441C12.2432 7.69108 12.0239 7.90313 11.6966 7.90313C11.6966 7.90313 11.6966 7.90313 8.92423 7.90313C8.65257 7.90313 8.43327 7.69108 8.43327 7.42441C8.43327 7.42441 8.43327 7.42441 8.43327 4.66778C8.43327 4.40112 8.21724 4.18907 7.9423 4.18907H6.25665C5.98498 4.18907 5.92933 4.02843 6.09299 3.81638C6.09299 3.81638 6.09299 3.81638 9.9029 0.102323L10.1517 -0.000488281Z" fill="white"/>
<path fill-rule="evenodd" clip-rule="evenodd" d="M4.18795 5.84058C4.25669 5.87271 4.29924 5.96588 4.29924 6.10082V13.8438C4.29924 13.9787 4.25669 14.0591 4.18795 14.0848C4.12249 14.1105 4.02757 14.0848 3.91628 14.0044C3.91628 14.0044 3.91628 14.0044 0.162019 10.2904C-0.0540064 10.1329 -0.0540064 9.81166 0.162019 9.59961C0.162019 9.59961 0.16202 9.59961 3.91628 5.94017C4.02757 5.83415 4.12249 5.80845 4.18795 5.84058Z" fill="white"/>
<path fill-rule="evenodd" clip-rule="evenodd" d="M8.92416 11.9346C8.92416 11.9346 8.92416 11.9346 11.6965 11.9346C12.0238 11.9346 12.2431 12.1466 12.2431 12.4133C12.2431 12.4133 12.2431 12.4133 12.2431 15.3306C12.2431 15.6486 12.4591 15.8607 12.7308 15.8607H14.2004C14.4721 15.8607 14.5801 16.0181 14.3641 16.1787C14.3641 16.1787 14.3641 16.1787 10.6655 19.8382C10.5542 19.9442 10.42 19.9988 10.2825 19.9988C10.1483 19.9988 10.0108 19.9442 9.90282 19.8382C9.90282 19.8382 9.90282 19.8382 6.2042 16.1787C5.9849 16.0181 6.09291 15.8607 6.36458 15.8607C6.36458 15.8607 6.36458 15.8607 7.94222 15.8607C8.21717 15.8607 8.43319 15.6486 8.43319 15.3306C8.43319 15.3306 8.43319 15.3306 8.43319 12.4133C8.43319 12.1466 8.65249 11.9346 8.92416 11.9346Z" fill="white"/>
</svg>
