<svg width="134" height="22" viewBox="0 0 134 22" fill="#FC5F9D" xmlns="http://www.w3.org/2000/svg">
<path d="M123 2.32865L125.258 7.07803L125.492 7.56977L126.032 7.6402L131.247 8.32041L127.428 11.9359L127.032 12.3102L127.132 12.8455L128.097 18.0153L123.478 15.5004L123 15.24L122.522 15.5004L117.903 18.0153L118.868 12.8455L118.968 12.3102L118.572 11.9359L114.753 8.32041L119.968 7.6402L120.508 7.56977L120.742 7.07803L123 2.32865Z" stroke="#FC5F9D" stroke-width="2"/>
<path d="M95 2.32865L97.2584 7.07803L97.4922 7.56977L98.0321 7.6402L103.247 8.32041L99.4279 11.9359L99.0325 12.3102L99.1323 12.8455L100.097 18.0153L95.4782 15.5004L95 15.24L94.5218 15.5004L89.9031 18.0153L90.8677 12.8455L90.9675 12.3102L90.5721 11.9359L86.7531 8.32041L91.9679 7.6402L92.5078 7.56977L92.7416 7.07803L95 2.32865Z" stroke="#FC5F9D" stroke-width="2"/>
<path d="M67 2.32865L69.2584 7.07803L69.4922 7.56977L70.0321 7.6402L75.2469 8.32041L71.4279 11.9359L71.0325 12.3102L71.1323 12.8455L72.0969 18.0153L67.4782 15.5004L67 15.24L66.5218 15.5004L61.9031 18.0153L62.8677 12.8455L62.9675 12.3102L62.5721 11.9359L58.7531 8.32041L63.9679 7.6402L64.5078 7.56977L64.7416 7.07803L67 2.32865Z" stroke="#FC5F9D" stroke-width="2"/>
<path d="M39 2.32865L41.2584 7.07803L41.4922 7.56977L42.0321 7.6402L47.2469 8.32041L43.4279 11.9359L43.0325 12.3102L43.1323 12.8455L44.0969 18.0153L39.4782 15.5004L39 15.24L38.5218 15.5004L33.9031 18.0153L34.8677 12.8455L34.9675 12.3102L34.5721 11.9359L30.7531 8.32041L35.9679 7.6402L36.5078 7.56977L36.7416 7.07803L39 2.32865Z" stroke="#FC5F9D" stroke-width="2"/>
<path d="M11 2.32865L13.2584 7.07803L13.4922 7.56977L14.0321 7.6402L19.2469 8.32041L15.4279 11.9359L15.0325 12.3102L15.1323 12.8455L16.0969 18.0153L11.4782 15.5004L11 15.24L10.5218 15.5004L5.90311 18.0153L6.86766 12.8455L6.96753 12.3102L6.57211 11.9359L2.75306 8.32041L7.96786 7.6402L8.50779 7.56977L8.74162 7.07803L11 2.32865Z" stroke="#FC5F9D" stroke-width="2"/>
</svg>
