<svg width="21" height="20" viewBox="0 0 21 20" fill="none" xmlns="http://www.w3.org/2000/svg">
<path d="M20.7429 18.5796L15.6943 13.7714C16.9457 12.3184 17.7 10.4571 17.7 8.42857C17.7 3.77551 13.7357 0 8.85 0C3.96 0 0 3.77551 0 8.42857C0 13.0816 3.96 16.8571 8.85 16.8571C10.98 16.8571 12.93 16.1429 14.4557 14.951L19.5043 19.7551C19.8471 20.0816 20.4 20.0816 20.7429 19.7551C21.0857 19.4327 21.0857 18.902 20.7429 18.5796ZM8.85 15.1796C4.93714 15.1796 1.75714 12.151 1.75714 8.42857C1.75714 4.70612 4.93714 1.67347 8.85 1.67347C12.7586 1.67347 15.9429 4.70612 15.9429 8.42857C15.9429 12.151 12.7586 15.1796 8.85 15.1796Z" fill="#FEFEFE"/>
</svg>
