<svg width="22" height="23" viewBox="0 0 22 23" fill="none" xmlns="http://www.w3.org/2000/svg">
<path d="M15.9858 6.62638C15.9858 9.36866 13.7558 11.5956 11.0001 11.5956C8.24438 11.5956 6.01436 9.36866 6.01436 6.62638C6.01436 3.8841 8.24438 1.65715 11.0001 1.65715C13.7558 1.65715 15.9858 3.8841 15.9858 6.62638ZM1.81966 21.4857C1.75827 21.4857 1.71079 21.4599 1.68223 21.4275C1.65636 21.3981 1.64876 21.3689 1.65508 21.3342C2.00941 19.3901 2.78848 17.7671 3.93159 16.6384C5.06226 15.522 6.59282 14.844 8.5617 14.844H13.4384C15.4073 14.844 16.9379 15.522 18.0685 16.6384C19.2117 17.7671 19.9907 19.3901 20.3451 21.3342C20.3514 21.3689 20.3438 21.3981 20.3179 21.4275C20.2893 21.4599 20.2419 21.4857 20.1805 21.4857H1.81966Z" stroke="black" stroke-width="1.6"/>
</svg>
