<svg width="36" height="12" viewBox="0 0 36 12" fill="none" xmlns="http://www.w3.org/2000/svg">
<path fill-rule="evenodd" clip-rule="evenodd" d="M10.7891 11.8043L12.7534 0.196132H15.8309L13.8665 11.8043H10.7891ZM25.1942 0.456989C24.5772 0.25508 23.6068 0.000488281 22.3787 0.000488281C19.3129 0.000488281 17.1412 1.57817 17.1404 3.84814C17.1036 5.50777 18.6729 6.43978 19.825 6.97843C21.072 7.56442 21.4805 7.92871 21.462 8.41315C21.4673 9.21626 20.5051 9.573 19.6286 9.58701C18.3586 9.573 17.6949 9.39737 16.6821 8.93486L16.2892 8.80443L15.8309 11.3478C16.5585 11.7041 17.9074 11.9852 19.3012 11.9999C22.5861 11.9999 24.7166 10.4415 24.7358 8.02186C24.7528 6.70433 23.9213 5.69987 22.1167 4.89157C21.03 4.33181 20.3607 3.97473 20.3488 3.45685C20.3691 2.94589 20.9338 2.42881 22.1822 2.41342C23.1767 2.41301 23.9156 2.63911 24.4739 2.86992L24.8013 3.00035L25.1942 0.456989ZM33.1825 0.196132H30.8253C30.0562 0.196132 29.4968 0.401643 29.1883 1.17435L24.5394 11.8043H27.8133C27.814 11.8043 28.3483 10.3722 28.4681 10.0435C28.8267 10.058 32.0086 10.064 32.4622 10.0435C32.5562 10.4693 32.8424 11.8043 32.8551 11.8043H35.7361L33.1825 0.196132ZM29.3848 7.69579C29.6462 7.02594 30.6415 4.43843 30.6288 4.43507C30.6231 4.46906 30.9016 3.76324 31.0872 3.32642L31.2836 4.30464C31.2738 4.33155 31.8792 7.1132 32.0039 7.69579H29.3848ZM8.16998 0.196132L5.09252 8.15229L4.76514 6.52193C4.19351 4.65551 2.42349 2.64306 0.443604 1.63085L3.25915 11.8043H6.53303L11.4439 0.196132H8.16998Z" fill="white"/>
</svg>
